<?xml version="1.0" encoding="utf-8"?>
<!-- Generator: Adobe Illustrator 24.0.1, SVG Export Plug-In . SVG Version: 6.00 Build 0)  -->
<svg version="1.1" id="Layer_1" xmlns="http://www.w3.org/2000/svg" xmlns:xlink="http://www.w3.org/1999/xlink" x="0px" y="0px"
	 viewBox="0 0 245.27 36.67" style="enable-background:new 0 0 245.27 36.67;" xml:space="preserve">
<style type="text/css">
	.st0{fill:url(#SVGID_1_);}
	.st1{fill:url(#SVGID_2_);}
	.st2{fill:#1D2E92;}
</style>
<g>
	<g>
		<linearGradient id="SVGID_1_" gradientUnits="userSpaceOnUse" x1="7.8977" y1="31.3322" x2="15.3153" y2="4.0767">
			<stop  offset="0" style="stop-color:#03D7D4"/>
			<stop  offset="1" style="stop-color:#A9FFFE"/>
		</linearGradient>
		<path class="st0" d="M15.68,36.67V0L0,26.41L15.68,36.67z M12.67,31.16l-8.63-5.63l8.63-14.57V31.16z"/>
		<linearGradient id="SVGID_2_" gradientUnits="userSpaceOnUse" x1="24.9994" y1="33.083" x2="14.4767" y2="6">
			<stop  offset="0" style="stop-color:#1D2E92"/>
			<stop  offset="1" style="stop-color:#0054F7"/>
		</linearGradient>
		<path class="st1" d="M28.09,26.04c0.07,2.11-1.36,3.99-1.36,3.99l5.51-3.62L16.56,0v36.67l3.02-1.96V10.96l7.83,13.23v0l0,0
			l0.21,0.35C27.8,24.87,28.02,25.4,28.09,26.04z"/>
	</g>
	<g>
		<path class="st2" d="M40.79,13.21h5.98c1.43,0,2.69,0.26,3.79,0.8c1.1,0.53,1.95,1.28,2.56,2.24c0.61,0.96,0.91,2.08,0.91,3.36
			s-0.3,2.4-0.91,3.36c-0.61,0.96-1.46,1.71-2.56,2.24c-1.1,0.53-2.36,0.79-3.79,0.79h-5.98V13.21z M46.62,23.57
			c1.32,0,2.37-0.36,3.15-1.07c0.78-0.71,1.18-1.68,1.18-2.9s-0.39-2.18-1.18-2.9c-0.78-0.71-1.83-1.07-3.15-1.07h-2.78v7.93H46.62z
			"/>
		<path class="st2" d="M67.73,26l-2.54-3.56h-0.15h-2.65V26h-3.05V13.21h5.7c1.17,0,2.18,0.19,3.04,0.57
			c0.86,0.38,1.52,0.91,1.98,1.61c0.46,0.69,0.7,1.52,0.7,2.47c0,0.95-0.23,1.77-0.7,2.46c-0.47,0.69-1.14,1.21-2,1.58L71,26H67.73z
			 M66.96,16.19c-0.48-0.38-1.17-0.58-2.09-0.58h-2.48v4.46h2.48c0.91,0,1.61-0.19,2.09-0.58c0.48-0.39,0.71-0.94,0.71-1.64
			C67.68,17.13,67.44,16.58,66.96,16.19z"/>
		<path class="st2" d="M86.52,23.62V26H76.33V13.21h9.95v2.38h-6.92v2.78h6.11v2.3h-6.11v2.96H86.52z"/>
		<path class="st2" d="M101.97,23.26h-6.11L94.7,26h-3.12l5.87-12.79h3.01L106.33,26h-3.2L101.97,23.26z M101.01,21.01l-2.09-4.9
			l-2.09,4.9H101.01z"/>
		<path class="st2" d="M123.44,26l-0.02-7.67l-3.87,6.32h-1.37l-3.85-6.16V26h-2.86V13.21h2.52l4.93,7.95l4.85-7.95h2.5L126.3,26
			H123.44z"/>
		<path class="st2" d="M139.96,13.21l-1.49-3.3L131.09,26h3.12l1.09-2.57l0.08-0.17l0.98-2.25l2.09-4.9l1.93,4.52l0.16,0.38h0
			l0.96,2.25h0l1.17,2.74h3.2L139.96,13.21z"/>
		<path class="st2" d="M159,26l-2.54-3.56h-0.15h-2.65V26h-3.05V13.21h5.7c1.17,0,2.18,0.19,3.04,0.57
			c0.86,0.38,1.52,0.91,1.98,1.61c0.46,0.69,0.7,1.52,0.7,2.47c0,0.95-0.24,1.77-0.71,2.46c-0.47,0.69-1.14,1.21-2,1.58l2.95,4.11
			H159z M158.23,16.19c-0.48-0.38-1.17-0.58-2.09-0.58h-2.48v4.46h2.48c0.92,0,1.61-0.19,2.09-0.58c0.48-0.39,0.71-0.94,0.71-1.64
			C158.95,17.13,158.71,16.58,158.23,16.19z"/>
		<path class="st2" d="M170.13,25.37c-1.08-0.57-1.94-1.35-2.56-2.36c-0.62-1-0.93-2.14-0.93-3.41c0-1.27,0.31-2.4,0.93-3.41
			c0.62-1.01,1.47-1.79,2.56-2.36c1.08-0.57,2.3-0.85,3.66-0.85c1.14,0,2.17,0.19,3.09,0.58c0.92,0.39,1.7,0.95,2.32,1.68
			l-1.96,1.75c-0.89-1-1.99-1.5-3.31-1.5c-0.81,0-1.54,0.17-2.18,0.52c-0.64,0.35-1.14,0.83-1.49,1.45
			c-0.36,0.62-0.54,1.33-0.54,2.12c0,0.79,0.18,1.5,0.54,2.12c0.36,0.62,0.86,1.11,1.49,1.45c0.64,0.35,1.37,0.52,2.18,0.52
			c1.32,0,2.42-0.51,3.31-1.52l1.96,1.75c-0.63,0.74-1.4,1.31-2.33,1.7c-0.93,0.39-1.96,0.58-3.1,0.58
			C172.42,26.22,171.21,25.93,170.13,25.37z"/>
		<path class="st2" d="M195.62,13.21V26h-3.05v-5.24h-5.98V26h-3.05V13.21h3.05v5.04h5.98v-5.04H195.62z"/>
		<path class="st2" d="M212.69,23.62V26H202.5V13.21h9.95v2.38h-6.92v2.78h6.11v2.3h-6.11v2.96H212.69z"/>
		<path class="st2" d="M226.53,26l-2.54-3.56h-0.15h-2.65V26h-3.05V13.21h5.7c1.17,0,2.18,0.19,3.04,0.57
			c0.86,0.38,1.52,0.91,1.98,1.61c0.46,0.69,0.7,1.52,0.7,2.47c0,0.95-0.24,1.77-0.71,2.46c-0.47,0.69-1.14,1.21-2,1.58L229.8,26
			H226.53z M225.76,16.19c-0.48-0.38-1.17-0.58-2.09-0.58h-2.48v4.46h2.48c0.92,0,1.61-0.19,2.09-0.58
			c0.48-0.39,0.71-0.94,0.71-1.64C226.48,17.13,226.24,16.58,225.76,16.19z"/>
		<path class="st2" d="M236.67,25.8c-0.97-0.27-1.75-0.63-2.34-1.07l1.03-2.23c0.56,0.4,1.23,0.73,2.01,0.97
			c0.78,0.24,1.55,0.37,2.33,0.37c0.86,0,1.5-0.12,1.92-0.37c0.41-0.25,0.62-0.58,0.62-1c0-0.3-0.12-0.56-0.37-0.76
			c-0.24-0.2-0.56-0.36-0.94-0.48c-0.38-0.12-0.9-0.26-1.55-0.4c-1-0.23-1.82-0.46-2.46-0.69c-0.64-0.23-1.19-0.6-1.65-1.11
			c-0.46-0.51-0.69-1.19-0.69-2.05c0-0.74,0.21-1.42,0.62-2.02c0.41-0.6,1.04-1.08,1.87-1.43c0.83-0.35,1.85-0.53,3.06-0.53
			c0.84,0,1.66,0.1,2.46,0.29c0.8,0.19,1.5,0.48,2.11,0.84l-0.94,2.25c-1.22-0.67-2.43-1.01-3.65-1.01c-0.85,0-1.48,0.13-1.89,0.4
			c-0.41,0.27-0.61,0.62-0.61,1.06c0,0.44,0.24,0.76,0.71,0.98c0.47,0.21,1.19,0.42,2.15,0.63c1,0.23,1.82,0.46,2.46,0.69
			c0.64,0.23,1.19,0.6,1.65,1.1c0.46,0.5,0.69,1.18,0.69,2.03c0,0.73-0.21,1.4-0.63,2c-0.42,0.6-1.05,1.08-1.89,1.43
			c-0.84,0.35-1.86,0.53-3.07,0.53C238.65,26.22,237.64,26.08,236.67,25.8z"/>
	</g>
</g>
</svg>
